<svg xmlns="http://www.w3.org/2000/svg" width="13.827" height="12.945" viewBox="0 0 13.827 12.945">
  <g id="グループ_570982" data-name="グループ 570982" transform="translate(0.494 0.256)">
    <g id="グループ_570981" data-name="グループ 570981" transform="translate(-0.206 -0.106)">
      <path id="パス_1089142" data-name="パス 1089142" d="M7.956.5A6.139,6.139,0,0,0,1.9,6.629H.973L2.1,8.24,3.227,6.629H2.305A5.725,5.725,0,0,1,7.956.918a5.727,5.727,0,0,1,5.652,5.787,5.727,5.727,0,0,1-5.652,5.787,5.633,5.633,0,0,1-4.572-2.384l-.33.246a6.04,6.04,0,0,0,4.9,2.556,6.141,6.141,0,0,0,6.06-6.205A6.141,6.141,0,0,0,7.956.5" transform="translate(-0.745 -0.383)" fill="#00356a" stroke="#00356a" stroke-width="0.3"/>
      <path id="パス_1089143" data-name="パス 1089143" d="M7.21,0a6.259,6.259,0,0,1,6.179,6.322A6.259,6.259,0,0,1,7.21,12.645a6.159,6.159,0,0,1-5-2.6l-.067-.094.515-.384.067.094A5.525,5.525,0,0,0,7.21,11.993a5.614,5.614,0,0,0,5.542-5.671A5.614,5.614,0,0,0,7.21.652a5.386,5.386,0,0,0-2.139.439,5.527,5.527,0,0,0-1.753,1.2A5.716,5.716,0,0,0,1.672,6.129H2.7L1.35,8.058,0,6.129H1.035a6.375,6.375,0,0,1,1.834-4.3A6.162,6.162,0,0,1,4.824.491,6.006,6.006,0,0,1,7.21,0Zm0,12.411a6.028,6.028,0,0,0,5.951-6.089A6.028,6.028,0,0,0,7.21.234a5.783,5.783,0,0,0-2.3.472A5.935,5.935,0,0,0,3.029,1.994a6.091,6.091,0,0,0-1.28,1.912A6.154,6.154,0,0,0,1.26,6.248v.115H.444L1.35,7.657l.906-1.294H1.439l0-.118a5.968,5.968,0,0,1,.475-2.269A5.905,5.905,0,0,1,3.157,2.124,5.754,5.754,0,0,1,4.983.876,5.608,5.608,0,0,1,7.21.418a5.845,5.845,0,0,1,5.77,5.9,5.845,5.845,0,0,1-5.77,5.9,5.749,5.749,0,0,1-4.6-2.339L2.465,10A5.929,5.929,0,0,0,7.21,12.411Z" transform="translate(0 0)" fill="#00356a" stroke="#00356a" stroke-width="0.3"/>
      <path id="パス_1089144" data-name="パス 1089144" d="M117.128,38.409V42.45l2.462,2.462.3-.3-2.339-2.339V38.409Z" transform="translate(-110.169 -36.036)" fill="#00356a" stroke="#00356a" stroke-width="0.3"/>
      <path id="パス_1089145" data-name="パス 1089145" d="M116.628,37.909h.654v3.936l2.388,2.388-.462.462-2.579-2.579Zm.42.234h-.185v3.875l2.345,2.345.131-.131-2.291-2.291Z" transform="translate(-109.789 -35.653)" fill="#00356a" stroke="#00356a" stroke-width="0.3"/>
    </g>
  </g>
</svg>
