<svg xmlns="http://www.w3.org/2000/svg" width="11.239" height="16.861" viewBox="0 0 11.239 16.861">
  <g id="グループ_572285" data-name="グループ 572285" transform="translate(23534.082 1506.885)">
    <path id="パス_1089628" data-name="パス 1089628" d="M0-24.524,4.469-28,4.7-18.665,0-13.381Z" transform="translate(-23528.611 -1478.156)" fill="#fff"/>
    <g id="初心者マークの無料アイコン素材_1" data-name="初心者マークの無料アイコン素材 1" transform="translate(-23534.082 -1506.885)">
      <path id="パス_1089627" data-name="パス 1089627" d="M95.338.09a1.791,1.791,0,0,0-1.957.576l-2.27,2.77c-.038.046-.074.093-.11.14l-.027.033q-.066-.088-.135-.172L88.567.666a1.793,1.793,0,0,0-1.96-.575A1.883,1.883,0,0,0,85.354,1.9V9.4a2.461,2.461,0,0,0,.556,1.557l4.7,5.735a.469.469,0,0,0,.725,0l4.7-5.735A2.461,2.461,0,0,0,96.593,9.4V1.9A1.883,1.883,0,0,0,95.338.09ZM95.253,9.4A1.115,1.115,0,0,1,95,10.1l-3.861,4.733a.094.094,0,0,1-.166-.059V5.759a.322.322,0,0,1,.075-.207l3.369-4.036a.458.458,0,0,1,.357-.175.5.5,0,0,1,.24.063.5.5,0,0,1,.24.444Z" transform="translate(-85.354 0)" fill="#7dbf00"/>
    </g>
  </g>
</svg>
