<svg id="グループ_558083" data-name="グループ 558083" xmlns="http://www.w3.org/2000/svg" width="24.2" height="24.912" viewBox="0 0 24.2 24.912">
  <path id="Call-Icon" d="M15.97,23.176s6.979,6.575,10.912,4.5a3.674,3.674,0,0,0,1.192-1.822c.105-.9-.8-1.509-1.147-1.715-.836-.5-1.695-.956-2.547-1.426a1.215,1.215,0,0,0-.88-.234,2.952,2.952,0,0,0-.542.184c-.6.291-1.092.566-1.743.839,0,0-.664-.2-3.14-2.528C15.445,18.5,15.8,17.584,15.8,17.584a10.021,10.021,0,0,0,.913-1.42,3.576,3.576,0,0,0,.33-.654c.066-.234-.069-.4-.183-.608-.252-.46-.522-.912-.8-1.358a16.37,16.37,0,0,0-1.589-2.265c-.065-.072-.216-.287-.34-.279a5.305,5.305,0,0,0-2.715,1.355C9.3,15.948,15.97,23.176,15.97,23.176Z" transform="translate(-11 -3.171)" fill="#027dd9" fill-rule="evenodd"/>
  <path id="Audio-Icon" d="M1.169,12.387A6.509,6.509,0,0,0,2.393,8.58,6.509,6.509,0,0,0,1.131,4.72a.629.629,0,0,0-.873-.137.617.617,0,0,0-.138.866A5.276,5.276,0,0,1,1.143,8.58a5.276,5.276,0,0,1-.993,3.088.617.617,0,0,0,.147.865A.628.628,0,0,0,1.169,12.387ZM3.92,14.37A10.01,10.01,0,0,0,5.752,8.58,10.01,10.01,0,0,0,3.886,2.742a.628.628,0,0,0-.872-.147.617.617,0,0,0-.149.864A8.777,8.777,0,0,1,4.5,8.58,8.777,8.777,0,0,1,2.9,13.659a.617.617,0,0,0,.154.864A.628.628,0,0,0,3.92,14.37Zm2.711,1.747A13.4,13.4,0,0,0,9.253,8.138,13.4,13.4,0,0,0,6.7.259.628.628,0,0,0,5.832.116a.617.617,0,0,0-.144.865A12.169,12.169,0,0,1,8,8.138a12.171,12.171,0,0,1-2.381,7.247.617.617,0,0,0,.136.867A.629.629,0,0,0,6.632,16.116Z" transform="translate(6.477 6.071) rotate(-41)" fill="#027dd9" fill-rule="evenodd"/>
</svg>
