<svg xmlns="http://www.w3.org/2000/svg" width="13.312" height="13.72" viewBox="0 0 13.312 13.72">
  <g id="グループ_572976" data-name="グループ 572976" transform="translate(0 0.273)">
    <path id="Call-Icon" d="M13.847,17.975s4,3.767,6.251,2.579a2.1,2.1,0,0,0,.683-1.044c.06-.517-.457-.864-.657-.982-.479-.284-.971-.548-1.459-.817a.7.7,0,0,0-.5-.134,1.691,1.691,0,0,0-.311.105c-.344.167-.626.324-1,.481a7.249,7.249,0,0,1-1.8-1.448c-1.507-1.417-1.3-1.943-1.3-1.943a5.74,5.74,0,0,0,.523-.813,2.049,2.049,0,0,0,.189-.375c.038-.134-.04-.23-.1-.348-.145-.264-.3-.522-.459-.778a9.379,9.379,0,0,0-.91-1.3c-.037-.041-.124-.164-.195-.16a3.039,3.039,0,0,0-1.555.776C10.025,13.835,13.847,17.975,13.847,17.975Z" transform="translate(-11 -7.339)" fill="#027dd9" fill-rule="evenodd"/>
    <path id="Audio-Icon" d="M1.135,5.683a2.47,2.47,0,0,0,.343-1.769A4.129,4.129,0,0,0,.552,1.936.378.378,0,0,0,.1,1.8c-.127.078-.13.263-.007.413a3.346,3.346,0,0,1,.751,1.6A2,2,0,0,1,.564,5.257.341.341,0,0,0,.7,5.69.3.3,0,0,0,1.135,5.683Zm1.546,1.17A3.812,3.812,0,0,0,3.187,4.16,6.323,6.323,0,0,0,1.809,1.173a.381.381,0,0,0-.454-.136c-.129.076-.134.26-.012.411A5.543,5.543,0,0,1,2.551,4.068,3.342,3.342,0,0,1,2.107,6.43a.343.343,0,0,0,.142.433A.3.3,0,0,0,2.681,6.853ZM4.189,7.9a5.065,5.065,0,0,0,.748-3.7A8.484,8.484,0,0,0,3.061.167.379.379,0,0,0,2.606.033C2.478.11,2.474.295,2.6.445A7.7,7.7,0,0,1,4.3,4.11a4.6,4.6,0,0,1-.679,3.364.338.338,0,0,0,.133.433A.305.305,0,0,0,4.189,7.9Z" transform="translate(4.286 3.013) rotate(-41)" fill="#027dd9" fill-rule="evenodd"/>
  </g>
</svg>
