<svg xmlns="http://www.w3.org/2000/svg" xmlns:xlink="http://www.w3.org/1999/xlink" width="48" height="48" viewBox="0 0 39 39">
  <defs>
    <filter id="楕円形_122" x="0" y="0" width="48" height="48" filterUnits="userSpaceOnUse">
      <feOffset dy="1" input="SourceAlpha"/>
      <feGaussianBlur stdDeviation="2" result="blur"/>
      <feFlood flood-color="#583c0e" flood-opacity="0.2"/>
      <feComposite operator="in" in2="blur"/>
      <feComposite in="SourceGraphic"/>
    </filter>
    <linearGradient id="linear-gradient" x1="1" x2="0.057" y2="0.915" gradientUnits="objectBoundingBox">
      <stop offset="0" stop-color="#d91ee8"/>
      <stop offset="0.498" stop-color="#ea2260"/>
      <stop offset="1" stop-color="#ffbf14"/>
    </linearGradient>
  </defs>
  <g id="グループ_571059" data-name="グループ 571059" transform="translate(-712 -5370)">
    <g transform="matrix(1, 0, 0, 1, 712, 5370)" filter="url(#楕円形_122)">
      <circle id="楕円形_122-2" data-name="楕円形 122" cx="13" cy="14" r="18" transform="translate(6 5)" fill="#F2F2F2"/>
    </g>
    <g id="グループ_558225" data-name="グループ 558225" transform="translate(726.928 5383.927)">
      <path id="パス_1084197" data-name="パス 1084197" d="M13.005,5.687c2.383,0,2.666.009,3.607.052a4.941,4.941,0,0,1,1.657.307,2.956,2.956,0,0,1,1.694,1.694A4.94,4.94,0,0,1,20.271,9.4c.043.941.052,1.224.052,3.607s-.009,2.666-.052,3.607a4.941,4.941,0,0,1-.307,1.657,2.956,2.956,0,0,1-1.694,1.694,4.941,4.941,0,0,1-1.657.307c-.941.043-1.223.052-3.607.052s-2.666-.009-3.607-.052a4.94,4.94,0,0,1-1.657-.307A2.956,2.956,0,0,1,6.047,18.27a4.941,4.941,0,0,1-.307-1.657c-.043-.941-.052-1.224-.052-3.607S5.7,10.339,5.739,9.4a4.94,4.94,0,0,1,.307-1.657A2.956,2.956,0,0,1,7.741,6.047,4.94,4.94,0,0,1,9.4,5.739c.941-.043,1.224-.052,3.607-.052m0-1.608c-2.424,0-2.728.01-3.68.054a6.552,6.552,0,0,0-2.167.415A4.564,4.564,0,0,0,4.548,7.158a6.552,6.552,0,0,0-.415,2.167c-.043.952-.054,1.256-.054,3.68s.01,2.728.054,3.68a6.552,6.552,0,0,0,.415,2.167,4.564,4.564,0,0,0,2.611,2.611,6.552,6.552,0,0,0,2.167.415c.952.043,1.256.054,3.68.054s2.728-.01,3.68-.054a6.552,6.552,0,0,0,2.167-.415,4.564,4.564,0,0,0,2.611-2.611,6.552,6.552,0,0,0,.415-2.167c.043-.952.054-1.256.054-3.68s-.01-2.728-.054-3.68a6.552,6.552,0,0,0-.415-2.167,4.564,4.564,0,0,0-2.611-2.611,6.552,6.552,0,0,0-2.167-.415c-.952-.043-1.256-.054-3.68-.054Z" transform="translate(-9.079 -8.079)" fill="#C3C3C3"/>
      <path id="パス_1084198" data-name="パス 1084198" d="M131.122,126.635a4.487,4.487,0,1,0,4.487,4.487A4.487,4.487,0,0,0,131.122,126.635Zm0,7.4a2.913,2.913,0,1,1,2.913-2.913A2.913,2.913,0,0,1,131.122,134.035Z" transform="translate(-127.196 -126.196)" fill="#C3C3C3"/>
      <circle id="楕円形_53" data-name="楕円形 53" cx="1.095" cy="1.095" r="1.095" transform="translate(7.581 -0.919)" fill="#C3C3C3"/>
    </g>
    <path id="前面オブジェクトで型抜き_2" data-name="前面オブジェクトで型抜き 2" d="M17.853,35.706A17.847,17.847,0,0,1,5.227,5.23,17.853,17.853,0,1,1,24.8,34.3,17.717,17.717,0,0,1,17.853,35.706Zm0-34.816a16.9,16.9,0,1,0,6.6,1.332A16.884,16.884,0,0,0,17.853.891Z" transform="translate(713 5371)" fill="#F2F2F2"/>
  </g>
</svg>