<svg xmlns="http://www.w3.org/2000/svg" xmlns:xlink="http://www.w3.org/1999/xlink" width="40" height="40" viewBox="0 0 40 40">
  <defs>
    <filter id="楕円形_122" x="0" y="0" width="40" height="40" filterUnits="userSpaceOnUse">
      <feOffset dy="1" input="SourceAlpha"/>
      <feGaussianBlur stdDeviation="2" result="blur"/>
      <feFlood flood-color="#583c0e" flood-opacity="0.2"/>
      <feComposite operator="in" in2="blur"/>
      <feComposite in="SourceGraphic"/>
    </filter>
    <linearGradient id="linear-gradient" x1="1" x2="0.057" y2="0.915" gradientUnits="objectBoundingBox">
      <stop offset="0" stop-color="#c3c3c3"/>
      <stop offset="0.498" stop-color="#c3c3c3"/>
      <stop offset="1" stop-color="#c3c3c3"/>
    </linearGradient>
  </defs>
  <g id="コンポーネント_154_9" data-name="コンポーネント 154 – 9" transform="translate(6 5)">
    <g transform="matrix(1, 0, 0, 1, -6, -5)" filter="url(#楕円形_122)">
      <circle id="楕円形_122-2" data-name="楕円形 122" cx="14" cy="14" r="14" transform="translate(6 5)" fill="#F2F2F2"/>
    </g>
    <g id="グループ_558225" data-name="グループ 558225" transform="translate(7.001 7)">
      <path id="パス_1084197" data-name="パス 1084197" d="M11.079,5.34c1.869,0,2.09.007,2.828.041a3.874,3.874,0,0,1,1.3.241A2.318,2.318,0,0,1,16.535,6.95a3.874,3.874,0,0,1,.241,1.3c.034.738.041.959.041,2.828s-.007,2.09-.041,2.828a3.874,3.874,0,0,1-.241,1.3,2.318,2.318,0,0,1-1.328,1.328,3.874,3.874,0,0,1-1.3.241c-.738.034-.959.041-2.828.041s-2.09-.007-2.828-.041a3.874,3.874,0,0,1-1.3-.241,2.318,2.318,0,0,1-1.328-1.328,3.874,3.874,0,0,1-.241-1.3c-.034-.738-.041-.959-.041-2.828s.007-2.09.041-2.828a3.874,3.874,0,0,1,.241-1.3A2.318,2.318,0,0,1,6.95,5.622a3.874,3.874,0,0,1,1.3-.241c.738-.034.959-.041,2.828-.041m0-1.261c-1.9,0-2.139.008-2.886.042a5.138,5.138,0,0,0-1.7.325A3.579,3.579,0,0,0,4.446,6.494a5.138,5.138,0,0,0-.325,1.7c-.034.747-.042.985-.042,2.886s.008,2.139.042,2.886a5.138,5.138,0,0,0,.325,1.7,3.579,3.579,0,0,0,2.047,2.047,5.138,5.138,0,0,0,1.7.325c.747.034.985.042,2.886.042s2.139-.008,2.886-.042a5.138,5.138,0,0,0,1.7-.325,3.579,3.579,0,0,0,2.047-2.047,5.138,5.138,0,0,0,.325-1.7c.034-.747.042-.985.042-2.886s-.008-2.139-.042-2.886a5.138,5.138,0,0,0-.325-1.7,3.579,3.579,0,0,0-2.047-2.047,5.138,5.138,0,0,0-1.7-.325c-.747-.034-.985-.042-2.886-.042Z" transform="translate(-4.079 -4.079)" fill="url(#linear-gradient)"/>
      <path id="パス_1084198" data-name="パス 1084198" d="M130.154,126.635a3.519,3.519,0,1,0,3.519,3.519A3.519,3.519,0,0,0,130.154,126.635Zm0,5.8a2.284,2.284,0,1,1,2.284-2.284A2.284,2.284,0,0,1,130.154,132.438Z" transform="translate(-123.154 -123.154)" fill="url(#linear-gradient)"/>
      <circle id="楕円形_53" data-name="楕円形 53" cx="0.859" cy="0.859" r="0.859" transform="translate(9.866 2.416)" fill="url(#linear-gradient)"/>
    </g>
    <path id="前面オブジェクトで型抜き_2" data-name="前面オブジェクトで型抜き 2" d="M14,28A14,14,0,0,1,4.1,4.1,14,14,0,1,1,19.448,26.9,13.893,13.893,0,0,1,14,28ZM14,.7a13.251,13.251,0,1,0,5.177,1.045A13.24,13.24,0,0,0,14,.7Z" transform="translate(0)" fill="url(#linear-gradient)"/>
  </g>
</svg>
