<svg id="コンポーネント_212_32" data-name="コンポーネント 212 – 32" xmlns="http://www.w3.org/2000/svg" width="28" height="28" viewBox="0 0 28 28">
  <g id="楕円形_67322" data-name="楕円形 67322" fill="#fff" stroke="#cbcbcb" stroke-width="1">
    <circle cx="14" cy="14" r="14" stroke="none"/>
    <circle cx="14" cy="14" r="13.5" fill="none"/>
  </g>
  <g id="グループ_565943" data-name="グループ 565943" transform="translate(5.21 5.661)">
    <path id="icon_keep" d="M4.714-11.36c0-.265-.269-.371-.471-.406L.02-12.41l-1.893-4.014c-.076-.168-.219-.362-.412-.362s-.337.194-.412.362L-4.591-12.41l-4.224.644c-.21.035-.471.141-.471.406a.7.7,0,0,0,.21.423l3.062,3.123L-6.736-3.4a1.251,1.251,0,0,0-.017.176c0,.229.109.441.353.441a.687.687,0,0,0,.337-.106l3.778-2.082L1.492-2.892a.661.661,0,0,0,.337.106c.244,0,.345-.212.345-.441A1.239,1.239,0,0,0,2.165-3.4L1.441-7.814,4.5-10.937A.667.667,0,0,0,4.714-11.36Z" transform="translate(11.076 18.125)" fill="#cbcbcb"/>
  </g>
</svg>
