<svg id="レイヤー_2" data-name="レイヤー 2" xmlns="http://www.w3.org/2000/svg" width="172" height="25" viewBox="0 0 172 25">
  <g id="グループ_564358" data-name="グループ 564358" transform="translate(0)">
    <g id="グループ_564354" data-name="グループ 564354" transform="translate(115.423 4.531)">
      <path id="パス_1088844" data-name="パス 1088844" d="M839.441,51.34a2.87,2.87,0,0,0-.24.6,9.1,9.1,0,0,1-2.555,4.369,6,6,0,0,1-4.12,1.514q-4.266,0-4.266-3.7l.121-8.893a5.063,5.063,0,0,0-.069-.894h2.168a6.388,6.388,0,0,0-.1.757l-.07,3.474q-.052,3.2-.051,5.488a2.681,2.681,0,0,0,.765,2.047,2.945,2.945,0,0,0,2.108.722,4.681,4.681,0,0,0,2.933-1.015,7.344,7.344,0,0,0,2.623-4.714l.757.24Zm-4.834-6.554h.98v2.133h-.98Zm1.979,0h.98v2.133h-.98Z" transform="translate(-828.26 -42.911)"/>
      <path id="パス_1088845" data-name="パス 1088845" d="M921.587,72.826a2,2,0,0,0-.051-.533l-1.446-6.364-2.168.464a2.094,2.094,0,0,0-.654.224l-.189-.808a3.516,3.516,0,0,0,.722-.068l2.15-.464a16.248,16.248,0,0,0-.687-2.477l1.634-.379a23.764,23.764,0,0,0,.585,2.545l2.2-.517a9.915,9.915,0,0,1,2.116-.326,2.8,2.8,0,0,1,1.969.687,2.433,2.433,0,0,1,.749,1.883,2.491,2.491,0,0,1-.817,1.936,2.855,2.855,0,0,1-1.987.74,4.612,4.612,0,0,1-1.3-.164,4.777,4.777,0,0,0-.765-.181l.154-.6a3.125,3.125,0,0,0,1.419.326,1.516,1.516,0,0,0,1.222-.542,2.21,2.21,0,0,0,.455-1.471,1.794,1.794,0,0,0-.482-1.376,1.758,1.758,0,0,0-1.247-.447,8.859,8.859,0,0,0-2.02.31l-1.532.379,1.446,6.261a1.972,1.972,0,0,0,.207.585l-1.686.379Zm3.9-10.131-.74,1.118a6.215,6.215,0,0,0-1.635-1.187,6.444,6.444,0,0,0-1.548-.6l.4-.722a2.641,2.641,0,0,0,.568.189,9.311,9.311,0,0,1,2.959,1.2Z" transform="translate(-904.746 -57.516)"/>
      <path id="パス_1088846" data-name="パス 1088846" d="M1019.356,35.908a16.71,16.71,0,0,0-.336,2.881q-.165,2.383-.164,5.461a24.007,24.007,0,0,0,.242,4.214l-1.979.224a6.283,6.283,0,0,0-.035-.705,35.511,35.511,0,0,1-.154-3.724q0-2.331.086-3.983t.138-2.236l.172-1.841c.022-.275.035-.471.035-.585Zm7.947-.344a1.818,1.818,0,0,1,.671-1.093,1.978,1.978,0,0,1,1.264-.421,1.782,1.782,0,0,1,1.3.568,1.927,1.927,0,0,1-1.359,3.287,1.816,1.816,0,0,1-1.53-.792v1.651h2.185a4.4,4.4,0,0,0,.859-.086v.86a4.414,4.414,0,0,0-.859-.086h-2.185V44.6a23.817,23.817,0,0,1,2.262,1.126q.765.456,1.109.611l-.98,1.669a17.03,17.03,0,0,0-2.391-1.961v.517a2.173,2.173,0,0,1-.92,1.9,4.375,4.375,0,0,1-2.545.646,4.174,4.174,0,0,1-2.572-.714,2.256,2.256,0,0,1-.946-1.893,2.406,2.406,0,0,1,.886-1.926,3.626,3.626,0,0,1,2.416-.748,6.977,6.977,0,0,1,1.755.224V39.453h-3.974a4.4,4.4,0,0,0-.86.086v-.86a4.4,4.4,0,0,0,.86.086h3.974v-2.34a4.415,4.415,0,0,0-.086-.86h1.669Zm-1.583,9.513a4.782,4.782,0,0,0-2.1-.5,2.411,2.411,0,0,0-1.651.517,1.763,1.763,0,0,0-.585,1.393,1.684,1.684,0,0,0,.679,1.4,2.689,2.689,0,0,0,1.694.525q1.96,0,1.961-1.875V45.078Zm2.081-9.1a1.38,1.38,0,1,0,.4-.972A1.324,1.324,0,0,0,1027.8,35.977Z" transform="translate(-990.731 -34.05)"/>
      <path id="パス_1088847" data-name="パス 1088847" d="M1142.343,47.757a3.807,3.807,0,0,0-.24.619,10.468,10.468,0,0,1-1.953,4.292,3.615,3.615,0,0,1-2.726,1.144,2.494,2.494,0,0,1-1.789-.619,2.2,2.2,0,0,1-.62-1.755l.086-3.372q.052-1.635-1.136-1.634a2.391,2.391,0,0,0-1.669.98,14.255,14.255,0,0,0-1.987,3.458q-1.11,2.477-1.179,2.769l-1.841-.86a14.746,14.746,0,0,0,.74-1.393q.569-1.152,1.686-3.665t2.081-4.774q.963-2.262,1.126-2.709a3.131,3.131,0,0,0,.181-.619l1.944.773a3.874,3.874,0,0,0-.344.636q-.844,2.064-2.563,5.642a3.479,3.479,0,0,1,2.512-1,2.413,2.413,0,0,1,1.755.671,2.173,2.173,0,0,1,.654,1.7l-.086,3.217q-.017,1.239,1.118,1.239a2.32,2.32,0,0,0,1.643-.7,5.93,5.93,0,0,0,1.3-2.125,8.071,8.071,0,0,0,.619-2.15l.687.224Z" transform="translate(-1085.766 -38.847)"/>
    </g>
    <g id="グループ_564355" data-name="グループ 564355" transform="translate(30.971 2.43)">
      <path id="パス_1088848" data-name="パス 1088848" d="M243.3,32.222a40.131,40.131,0,0,0-3.141-3.212,20.156,20.156,0,0,1-10.245,6.868l-.657-.773a18.956,18.956,0,0,0,8.815-7.947,43.45,43.45,0,0,0-5.814-3.774l.328-.8a51.654,51.654,0,0,1,6.447,2.673,27.093,27.093,0,0,0,2.133-7.76l3.681.891a25.523,25.523,0,0,1-3.048,8.3,42.686,42.686,0,0,1,3.822,2.438Z" transform="translate(-229.26 -17.5)"/>
      <path id="パス_1088849" data-name="パス 1088849" d="M382.1,35.479a17.709,17.709,0,0,0-4.782-5.6l.586-.726a35.118,35.118,0,0,1,6.87,3.1L382.1,35.481Zm12.753-2.087c-2.063,5.861-7.314,11.088-16.527,12l-.844-3.329c8.908-.446,13.9-3.985,16.387-9.214Z" transform="translate(-356.76 -27.532)"/>
      <path id="パス_1088850" data-name="パス 1088850" d="M504.27,53.485V52.406h8.486v-10.2h-5.673V41.13h14.98v1.079h-5.791v10.2h8.58v1.079H504.27Z" transform="translate(-466.081 -37.849)"/>
      <path id="パス_1088851" data-name="パス 1088851" d="M677.832,46.743a26.528,26.528,0,0,0-6.049-6.447,23.7,23.7,0,0,1-10.338,6.47l-.515-.821a20.937,20.937,0,0,0,11.816-14.3h-8.417V30.66h12.144v1.008a21.5,21.5,0,0,1-3.985,7.83,44.666,44.666,0,0,1,7.783,4.1l-2.438,3.141Z" transform="translate(-600.987 -28.833)"/>
    </g>
    <g id="グループ_564357" data-name="グループ 564357">
      <path id="パス_1088852" data-name="パス 1088852" d="M40.917,25,30.61,19.4c-.3-.813.41-1.255.912-.982l9.384,5.1,9.522-5.365V1.293H31.262C30.6.724,31,0,31.579,0H51.742V18.9Z" transform="translate(-26.299)"/>
      <g id="グループ_564356" data-name="グループ 564356" transform="translate(0 2.348)">
        <path id="パス_1088853" data-name="パス 1088853" d="M16.036,34.4A2.009,2.009,0,0,1,14.31,35c-.871-.181-1.135-1.118-1.135-2.187,0-.181,0-.361.017-.56A53.248,53.248,0,0,1,14.31,27.03a5.843,5.843,0,0,0,.2-1.216c0-.394-.132-.69-.526-.707-.575-.017-1.546,1.266-2.1,2.219a14.476,14.476,0,0,0-.789,1.661c-.115.839-.247,1.644-.346,2.12-.2,1.135-.526,3.238-.575,3.469a.365.365,0,0,1-.361.329c-.147,0-.822.065-.986.05-.164-.033-.444-.082-.312-.476.115-.394.673-2.976,1.053-4.916a27.548,27.548,0,0,0,.625-4.094c0-.51-.082-.871-.312-.969-.625-.262-1.5.839-2.022,1.825a27.628,27.628,0,0,0-1.216,2.811c-.444,2.236-1,5-1.053,5.212-.065.312-.214.493-.428.51-.2.017-.986.017-1.183.017-.214,0-.361-.1-.164-.642s1.019-3.7,1.464-5.935a18.913,18.913,0,0,0,.493-3.469c0-1.053-.231-1.776-.937-2.022a2.107,2.107,0,0,0-.642-.1,3.2,3.2,0,0,0-2.861,2.154,3.8,3.8,0,0,0-.2,1.1,1.252,1.252,0,0,0,.921,1.365A1.644,1.644,0,0,0,3.577,26.8a.311.311,0,0,1,.214-.115c.1,0,.181.115.2.346A1.88,1.88,0,0,1,2.13,28.872,2.187,2.187,0,0,1,.01,26.456a4.206,4.206,0,0,1,.9-2.5,4.943,4.943,0,0,1,3.8-1.858,3.456,3.456,0,0,1,1.38.279,2.45,2.45,0,0,1,1.233,2.45,10.738,10.738,0,0,1-.181,1.677c-.017.1-.033.214-.065.346.2-.361.394-.74.575-1.053.673-1.1,1.661-2.12,2.63-1.907.969.231,1.168,1.168,1.135,2.187-.017.312-.065.805-.132,1.348.164-.3.329-.575.476-.789.51-.772,1.414-2.269,2.762-1.973,1.3.279,1.315,1.808,1.282,2.384a27.953,27.953,0,0,1-1.1,4.981,8.525,8.525,0,0,0-.329,1.825c0,.329.065.56.262.625.493.149.937-.279,1.332-.707" transform="translate(-0.01 -21.379)"/>
        <path id="パス_1088854" data-name="パス 1088854" d="M111.75,25.567c-.181.082-.378.2-1.053.526-.033.149-.065.312-.115.476-1.661,6.46-3.731,8.087-5.113,8.087a1.537,1.537,0,0,1-.476-.065,1.747,1.747,0,0,1-1.053-1.858,4.781,4.781,0,0,1,.805-2.565,10.412,10.412,0,0,1,4.192-3.7c-.05-.033-.115-.065-.164-.1a5.293,5.293,0,0,1-2.1-4.455,8.386,8.386,0,0,1,.05-.887c.312-2.581,1.907-4.291,3.091-4.11,1.134.164,1.841,1,1.841,3.173a24.732,24.732,0,0,1-.805,5.392c.658-.329.772-.411.937-.476.279-.115.493.329-.033.558Zm-7.135,7.085c-.115.969.181,1.693.969,1.577.772-.115,1.365-1.135,1.825-2.3.3-.723.887-2.794,1.43-4.866-2.12,1.216-3.945,3.024-4.224,5.589Zm2.8-11.03c-.017.181-.017.361-.017.543a4.787,4.787,0,0,0,1.726,3.781c.231-.887.428-1.726.575-2.416a26.1,26.1,0,0,0,.822-4.719c0-.805-.2-1.348-.74-1.365-1.414-.05-2.219,2.252-2.368,4.176Z" transform="translate(-89.508 -16.906)"/>
      </g>
    </g>
  </g>
</svg>
