<svg id="favorite" xmlns="http://www.w3.org/2000/svg" width="16" height="16" viewBox="0 0 16 16">
  <path id="favorite-2" data-name="favorite" d="M14.067,18.4a1.037,1.037,0,0,1-.6-.192l-3.6-2.532a.1.1,0,0,0-.121,0l-3.6,2.532a1.031,1.031,0,0,1-1.218-.02,1.153,1.153,0,0,1-.414-1.2L5.7,12.615a.12.12,0,0,0-.039-.122L2.248,9.683a1.156,1.156,0,0,1-.38-1.247,1.079,1.079,0,0,1,1-.779l4.345-.172a.112.112,0,0,0,.1-.076l1.5-4.269a1.056,1.056,0,0,1,2.013,0l1.5,4.269a.112.112,0,0,0,.1.076l4.345.172a1.079,1.079,0,0,1,1,.779,1.156,1.156,0,0,1-.38,1.247l-3.409,2.81a.114.114,0,0,0-.039.122L15.12,16.99a1.172,1.172,0,0,1-.194.979A1.059,1.059,0,0,1,14.067,18.4ZM9.809,14.645a1.035,1.035,0,0,1,.594.213L14,17.39a.1.1,0,0,0,.127,0,.115.115,0,0,0,.037-.128l-1.183-4.375a1.151,1.151,0,0,1,.372-1.19l3.409-2.81a.114.114,0,0,0,.04-.126.107.107,0,0,0-.1-.077l-4.345-.172a1.078,1.078,0,0,1-.966-.739L9.9,3.505a.1.1,0,0,0-.2,0L8.211,7.769a1.078,1.078,0,0,1-.966.739L2.9,8.68a.107.107,0,0,0-.1.077.114.114,0,0,0,.04.126L6.25,11.7a1.156,1.156,0,0,1,.372,1.19L5.444,17.263a.109.109,0,0,0,.039.122.093.093,0,0,0,.126,0l3.6-2.532a1.037,1.037,0,0,1,.594-.187Z" transform="translate(-1.816 -2.402)" fill="#fff"/>
</svg>
