<svg xmlns="http://www.w3.org/2000/svg" width="91" height="15" viewBox="0 0 91 15"><g transform="translate(-85 -366)"><path d="M7.5,24.808l4.635,2.942L10.909,22.2,15,18.469l-5.393-.487L7.5,12.75,5.393,17.982,0,18.469,4.091,22.2,2.865,27.75Z" transform="translate(85 353.25)" fill="#ffbb02"/><path d="M7.5,24.808l4.635,2.942L10.909,22.2,15,18.469l-5.393-.487L7.5,12.75,5.393,17.982,0,18.469,4.091,22.2,2.865,27.75Z" transform="translate(104 353.25)" fill="#ffbb02"/><path d="M7.5,24.808l4.635,2.942L10.909,22.2,15,18.469l-5.393-.487L7.5,12.75,5.393,17.982,0,18.469,4.091,22.2,2.865,27.75Z" transform="translate(123 353.25)" fill="#ffbb02"/><path d="M7.5,24.808l4.635,2.942L10.909,22.2,15,18.469l-5.393-.487L7.5,12.75,5.393,17.982,0,18.469,4.091,22.2,2.865,27.75Z" transform="translate(142 353.25)" fill="#ffbb02"/><path d="M7.5,24.808l4.635,2.942L10.909,22.2,15,18.469l-5.393-.487L7.5,12.75,5.393,17.982,0,18.469,4.091,22.2,2.865,27.75Z" transform="translate(161 353.25)" fill="#cfcfcf"/><path d="M7.5,24.808V12.75L5.393,17.982,0,18.469,4.091,22.2,2.865,27.75Z" transform="translate(161 353.25)" fill="#ffbb02"/></g></svg>