<svg xmlns="http://www.w3.org/2000/svg" width="10.267" height="14" viewBox="0 0 10.267 14">
  <path id="yen" d="M16.688,3.723a.48.48,0,0,0-.127-.646.434.434,0,0,0-.618.133l-4.315,6.9L7.314,3.21A.434.434,0,0,0,6.7,3.077a.48.48,0,0,0-.127.646L11.182,11.1v.863H8.951a.374.374,0,0,0,0,.747h2.231v1.12H8.951a.374.374,0,0,0,0,.747h2.231v1.96a.447.447,0,1,0,.892,0v-1.96h2.231a.374.374,0,0,0,0-.747H12.074v-1.12h2.231a.374.374,0,0,0,0-.747H12.074V11.1Z" transform="translate(-6.495 -3)" fill="#333"/>
</svg>
