<svg id="レイヤー_1" data-name="レイヤー 1" xmlns="http://www.w3.org/2000/svg" viewBox="0 0 20.95 28.95"><defs><style>.a{fill:#1F1C0D;}</style></defs><title>ico-area</title><path class="a" d="M16,6a5.1,5.1,0,1,0,5.09,5.1h0A5.09,5.09,0,0,0,16,6Zm0,8.41a3.32,3.32,0,1,1,3.32-3.31h0A3.32,3.32,0,0,1,16,14.37Z" transform="translate(-5.53 -1.78)"/><path class="a" d="M16,1.78A10.48,10.48,0,0,0,5.53,12.2c0,4.16,2.33,7.63,4,10.16l.32.47a89.23,89.23,0,0,0,5.45,7.11l.68.79.67-.79a89.36,89.36,0,0,0,5.46-7.11l.31-.47c1.7-2.54,4-6,4-10.16A10.48,10.48,0,0,0,16,1.78Zm5,19.55-.32.47A72.18,72.18,0,0,1,16,27.94C15,26.67,12.88,24.1,11.35,21.8L11,21.33C9.47,19,7.31,15.78,7.31,12.17a8.69,8.69,0,1,1,17.38,0h0C24.69,15.81,22.54,19,21,21.33Z" transform="translate(-5.53 -1.78)"/></svg>