<svg xmlns="http://www.w3.org/2000/svg" viewBox="0 0 28 28"><defs><style>.a{fill:#41493b;}</style></defs><g transform="translate(-2 -2)"><path class="a" d="M16,2A14,14,0,1,0,30,16,14,14,0,0,0,16,2Zm0,26.25A12.25,12.25,0,1,1,28.25,16,12.25,12.25,0,0,1,16,28.25Z" transform="translate(0 0)"/><path class="a" d="M18.67,17.319V10.625a.875.875,0,1,0-1.75,0v7.63l5.162,3.5a.875.875,0,1,0,.971-1.453Z" transform="translate(-1.865 -0.969)"/><path class="a" d="M7.8,16.49A8.7,8.7,0,0,1,21.281,9.184l.744-1.19a10.106,10.106,0,1,0-7.464,18.375L14.8,25.03A8.75,8.75,0,0,1,7.8,16.49Z" transform="translate(-0.548 -0.543)"/></g></svg>