<svg xmlns="http://www.w3.org/2000/svg" width="15.459" height="15.935" viewBox="0 0 15.459 15.935">
  <g id="グループ_565937" data-name="グループ 565937" transform="translate(0 0.46)">
    <path id="Call-Icon" d="M14.323,19.14s4.666,4.4,7.3,3.01a2.456,2.456,0,0,0,.8-1.218c.07-.6-.533-1.009-.767-1.146-.559-.331-1.133-.639-1.7-.953a.813.813,0,0,0-.588-.157,1.974,1.974,0,0,0-.363.123c-.4.195-.73.378-1.165.561a8.46,8.46,0,0,1-2.1-1.69c-1.759-1.653-1.521-2.268-1.521-2.268a6.7,6.7,0,0,0,.61-.949,2.391,2.391,0,0,0,.22-.437c.044-.157-.046-.269-.122-.406-.169-.308-.349-.61-.536-.908a10.946,10.946,0,0,0-1.062-1.514c-.043-.048-.144-.192-.227-.186a3.547,3.547,0,0,0-1.815.906C9.862,14.308,14.323,19.14,14.323,19.14Z" transform="translate(-11 -6.946)" fill="#fff" fill-rule="evenodd"/>
    <path id="Audio-Icon" d="M1.613,6.684a2.717,2.717,0,0,0,.343-2A4.938,4.938,0,0,0,.843,2.415.448.448,0,0,0,.32,2.253c-.143.085-.142.294,0,.468a4,4,0,0,1,.9,1.842A2.2,2.2,0,0,1,.948,6.185a.4.4,0,0,0,.17.5C1.3,6.818,1.524,6.82,1.613,6.684Zm1.8,1.371a4.2,4.2,0,0,0,.5-3.042,7.558,7.558,0,0,0-1.659-3.43.451.451,0,0,0-.523-.167c-.145.083-.146.292,0,.466A6.626,6.626,0,0,1,3.187,4.891,3.679,3.679,0,0,1,2.745,7.56a.4.4,0,0,0,.174.5C3.1,8.192,3.324,8.192,3.413,8.055ZM5.166,9.292a5.567,5.567,0,0,0,.752-4.183A10.144,10.144,0,0,0,3.661.477.45.45,0,0,0,3.138.312c-.144.084-.144.293,0,.467A9.21,9.21,0,0,1,5.187,4.987a5.055,5.055,0,0,1-.683,3.8.4.4,0,0,0,.164.5C4.851,9.421,5.074,9.426,5.166,9.292Z" transform="translate(4.751 3.285) rotate(-41)" fill="#fff" fill-rule="evenodd"/>
  </g>
</svg>
