<svg id="コンポーネント_211_316" data-name="コンポーネント 211 – 316" xmlns="http://www.w3.org/2000/svg" width="35" height="35" viewBox="0 0 35 35">
  <g id="楕円形_67322" data-name="楕円形 67322" fill="#fff" stroke="#cbcbcb" stroke-width="1">
    <circle cx="17.5" cy="17.5" r="17.5" stroke="none"/>
    <circle cx="17.5" cy="17.5" r="17" fill="none"/>
  </g>
  <g id="グループ_565943" data-name="グループ 565943" transform="translate(8.019 7.089)">
    <path id="icon_keep" d="M7.676-10.213c0-.321-.326-.449-.571-.492l-5.117-.78L-.306-16.348c-.092-.2-.265-.438-.5-.438s-.408.235-.5.438L-3.6-11.485l-5.117.78c-.255.043-.571.171-.571.492a.845.845,0,0,0,.255.513l3.71,3.783L-6.2-.572a1.516,1.516,0,0,0-.02.214c0,.278.133.534.428.534A.832.832,0,0,0-5.382.047L-.8-2.475,3.772.047a.8.8,0,0,0,.408.128c.3,0,.418-.257.418-.534a1.5,1.5,0,0,0-.01-.214L3.711-5.916,7.411-9.7A.808.808,0,0,0,7.676-10.213Z" transform="translate(10.057 17.661)" fill="#cbcbcb"/>
    <rect id="長方形_300687" data-name="長方形 300687" width="19" height="19" transform="translate(-0.019 -0.089)" fill="none"/>
  </g>
</svg>
