<svg xmlns="http://www.w3.org/2000/svg" width="14.95" height="20.659" viewBox="0 0 14.95 20.659">
  <g id="map-marker" transform="translate(0 0)">
    <path id="パス_95" data-name="パス 95" d="M15.9,6.72a3.635,3.635,0,1,0,3.635,3.635A3.635,3.635,0,0,0,15.9,6.72Zm0,6a2.363,2.363,0,1,0,0-.006Z" transform="translate(-8.433 -3.726)" fill="#333"/>
    <path id="パス_96" data-name="パス 96" d="M13.692,2A7.478,7.478,0,0,0,6.22,9.44c0,2.962,1.662,5.442,2.88,7.25l.222.33a63.183,63.183,0,0,0,3.895,5.074l.482.565.482-.565a63.317,63.317,0,0,0,3.895-5.074l.222-.336C19.508,14.876,21.17,12.4,21.17,9.44A7.478,7.478,0,0,0,13.692,2Zm3.546,13.954-.228.336a51.57,51.57,0,0,1-3.317,4.377c-.748-.907-2.226-2.74-3.317-4.377l-.222-.336C9.03,14.28,7.489,11.99,7.489,9.415a6.2,6.2,0,1,1,12.407,0C19.9,12.016,18.36,14.305,17.238,15.954Z" transform="translate(-6.22 -2)" fill="#333"/>
  </g>
</svg>
