<svg id="レイヤー_2" data-name="レイヤー 2" xmlns="http://www.w3.org/2000/svg" width="230" height="34.075" viewBox="0 0 230 34.075">
  <g id="グループ_564358" data-name="グループ 564358" transform="translate(0)">
    <g id="グループ_564354" data-name="グループ 564354" transform="translate(154.164 6.338)">
      <path id="パス_1088844" data-name="パス 1088844" d="M843.247,53.723a3.854,3.854,0,0,0-.322.808,12.2,12.2,0,0,1-3.425,5.856,8.049,8.049,0,0,1-5.522,2.029q-5.718,0-5.718-4.957l.162-11.92a6.79,6.79,0,0,0-.093-1.2h2.906a8.58,8.58,0,0,0-.138,1.014L831,50.011q-.07,4.288-.069,7.356a3.594,3.594,0,0,0,1.026,2.744,3.947,3.947,0,0,0,2.826.968,6.274,6.274,0,0,0,3.931-1.361,9.842,9.842,0,0,0,3.516-6.319l1.014.322Zm-6.479-8.785h1.314V47.8h-1.314Zm2.652,0h1.314V47.8h-1.314Z" transform="translate(-828.26 -42.425)" fill="#fff"/>
      <path id="パス_1088845" data-name="パス 1088845" d="M923.122,76.749a2.675,2.675,0,0,0-.069-.715l-1.938-8.53-2.905.622a2.808,2.808,0,0,0-.877.3l-.253-1.083a4.714,4.714,0,0,0,.968-.091l2.881-.622a21.8,21.8,0,0,0-.921-3.321L922.2,62.8a31.861,31.861,0,0,0,.784,3.412l2.952-.692a13.291,13.291,0,0,1,2.837-.437A3.748,3.748,0,0,1,931.41,66a3.262,3.262,0,0,1,1,2.524,3.339,3.339,0,0,1-1.094,2.595,3.826,3.826,0,0,1-2.664.992,6.182,6.182,0,0,1-1.74-.22,6.4,6.4,0,0,0-1.026-.242l.207-.808a4.189,4.189,0,0,0,1.9.437,2.032,2.032,0,0,0,1.638-.726,2.963,2.963,0,0,0,.61-1.971,2.4,2.4,0,0,0-.646-1.845,2.357,2.357,0,0,0-1.672-.6,11.875,11.875,0,0,0-2.708.415l-2.053.508,1.938,8.393a2.646,2.646,0,0,0,.277.784l-2.26.508Zm5.234-13.58-.992,1.5a8.332,8.332,0,0,0-2.191-1.591,8.638,8.638,0,0,0-2.075-.808l.531-.968a3.541,3.541,0,0,0,.761.253,12.479,12.479,0,0,1,3.967,1.614Z" transform="translate(-900.548 -56.228)" fill="#fff"/>
      <path id="パス_1088846" data-name="パス 1088846" d="M1020.182,36.54a22.385,22.385,0,0,0-.45,3.862q-.221,3.194-.22,7.321a32.184,32.184,0,0,0,.324,5.649l-2.652.3a8.4,8.4,0,0,0-.047-.946,47.6,47.6,0,0,1-.207-4.992q0-3.124.115-5.338t.184-3l.231-2.468c.03-.369.047-.631.047-.784Zm10.652-.462a2.437,2.437,0,0,1,.9-1.465,2.652,2.652,0,0,1,1.694-.564,2.389,2.389,0,0,1,1.74.761,2.584,2.584,0,0,1-1.822,4.406,2.434,2.434,0,0,1-2.051-1.061v2.213h2.928a5.9,5.9,0,0,0,1.152-.115v1.152a5.917,5.917,0,0,0-1.152-.115h-2.928v6.894a31.925,31.925,0,0,1,3.032,1.51q1.025.611,1.487.819l-1.314,2.237a22.821,22.821,0,0,0-3.205-2.628v.692a2.912,2.912,0,0,1-1.234,2.548,5.864,5.864,0,0,1-3.412.866,5.594,5.594,0,0,1-3.447-.957,3.024,3.024,0,0,1-1.268-2.537,3.225,3.225,0,0,1,1.188-2.582,4.861,4.861,0,0,1,3.239-1,9.353,9.353,0,0,1,2.353.3V41.292h-5.327a5.9,5.9,0,0,0-1.152.115V40.256a5.9,5.9,0,0,0,1.152.115h5.327V37.235a5.92,5.92,0,0,0-.115-1.152h2.237Zm-2.122,12.752a6.41,6.41,0,0,0-2.812-.668,3.232,3.232,0,0,0-2.213.692,2.363,2.363,0,0,0-.784,1.867,2.257,2.257,0,0,0,.91,1.88,3.6,3.6,0,0,0,2.271.7q2.627,0,2.628-2.513v-1.96Zm2.79-12.2a1.849,1.849,0,1,0,.542-1.3A1.775,1.775,0,0,0,1031.5,36.634Z" transform="translate(-981.812 -34.05)" fill="#fff"/>
      <path id="パス_1088847" data-name="パス 1088847" d="M1147.467,50.527a5.1,5.1,0,0,0-.322.83q-1.153,4.219-2.617,5.753a4.845,4.845,0,0,1-3.654,1.534,3.343,3.343,0,0,1-2.4-.83,2.948,2.948,0,0,1-.83-2.353l.115-4.519q.07-2.192-1.522-2.191A3.2,3.2,0,0,0,1134,50.066a19.11,19.11,0,0,0-2.664,4.635q-1.488,3.32-1.58,3.711l-2.468-1.152a19.764,19.764,0,0,0,.992-1.867q.762-1.544,2.26-4.912t2.79-6.4q1.29-3.032,1.51-3.631a4.2,4.2,0,0,0,.242-.83l2.606,1.037a5.2,5.2,0,0,0-.462.852q-1.131,2.767-3.436,7.563a4.664,4.664,0,0,1,3.367-1.336,3.234,3.234,0,0,1,2.353.9,2.913,2.913,0,0,1,.877,2.282l-.115,4.313q-.023,1.661,1.5,1.66a3.109,3.109,0,0,0,2.2-.934,7.949,7.949,0,0,0,1.74-2.848,10.821,10.821,0,0,0,.83-2.881l.921.3Z" transform="translate(-1071.631 -38.583)" fill="#fff"/>
    </g>
    <g id="グループ_564355" data-name="グループ 564355" transform="translate(41.33 3.257)">
      <path id="パス_1088848" data-name="パス 1088848" d="M248.084,37.234a53.789,53.789,0,0,0-4.21-4.305,27.017,27.017,0,0,1-13.733,9.206l-.88-1.037a25.409,25.409,0,0,0,11.816-10.652,58.24,58.24,0,0,0-7.793-5.059l.439-1.068a69.237,69.237,0,0,1,8.642,3.583,36.316,36.316,0,0,0,2.859-10.4l4.934,1.195a34.211,34.211,0,0,1-4.086,11.123,57.216,57.216,0,0,1,5.122,3.268Z" transform="translate(-229.26 -17.5)" fill="#fff"/>
      <path id="パス_1088849" data-name="パス 1088849" d="M383.73,37.634a23.737,23.737,0,0,0-6.41-7.51l.785-.973a47.073,47.073,0,0,1,9.208,4.149l-3.583,4.337Zm17.094-2.8c-2.766,7.857-9.8,14.863-22.153,16.089l-1.132-4.462c11.94-.6,18.634-5.342,21.965-12.35Z" transform="translate(-349.761 -26.982)" fill="#fff"/>
      <path id="パス_1088850" data-name="パス 1088850" d="M504.27,57.69V56.244h11.375V42.576h-7.6V41.13h20.08v1.446h-7.762v13.67h11.5v1.446H504.27Z" transform="translate(-453.082 -36.732)" fill="#fff"/>
      <path id="パス_1088851" data-name="パス 1088851" d="M683.586,52.218a35.556,35.556,0,0,0-8.108-8.642,31.764,31.764,0,0,1-13.858,8.672l-.691-1.1A28.064,28.064,0,0,0,676.768,31.98H665.486V30.66h16.277v1.351a28.817,28.817,0,0,1-5.342,10.5,59.869,59.869,0,0,1,10.433,5.5l-3.268,4.21Z" transform="translate(-580.582 -28.211)" fill="#fff"/>
    </g>
    <g id="グループ_564357" data-name="グループ 564357">
      <path id="パス_1088852" data-name="パス 1088852" d="M44.45,34.075,30.634,26.44c-.4-1.107.549-1.711,1.223-1.338l12.579,6.95L57.2,24.739V1.763H31.509C30.625.986,31.162,0,31.933,0H58.959V25.761Z" transform="translate(-24.856)" fill="#fff"/>
      <g id="グループ_564356" data-name="グループ 564356" transform="translate(0 3.147)">
        <path id="パス_1088853" data-name="パス 1088853" d="M21.492,38.582a2.693,2.693,0,0,1-2.314.815c-1.167-.242-1.521-1.5-1.521-2.932,0-.242,0-.484.022-.75a71.373,71.373,0,0,1,1.5-7.008,7.833,7.833,0,0,0,.264-1.631c0-.529-.177-.925-.705-.947-.771-.022-2.072,1.7-2.82,2.974A19.4,19.4,0,0,0,14.86,31.33c-.154,1.124-.331,2.2-.463,2.842-.264,1.521-.705,4.341-.771,4.65a.49.49,0,0,1-.484.441c-.2,0-1.1.087-1.322.067-.22-.045-.6-.11-.419-.638.154-.529.9-3.989,1.411-6.589a36.926,36.926,0,0,0,.838-5.487c0-.683-.11-1.167-.419-1.3-.838-.352-2,1.124-2.71,2.446A37.033,37.033,0,0,0,8.89,31.529c-.6,3-1.344,6.7-1.411,6.986-.087.419-.287.661-.573.683-.264.022-1.322.022-1.586.022-.287,0-.484-.132-.22-.86S6.467,33.4,7.063,30.405a25.351,25.351,0,0,0,.661-4.65c0-1.411-.309-2.381-1.256-2.71a2.825,2.825,0,0,0-.86-.132A4.294,4.294,0,0,0,1.773,25.8a5.09,5.09,0,0,0-.264,1.476,1.678,1.678,0,0,0,1.234,1.83A2.2,2.2,0,0,0,4.792,28.4a.416.416,0,0,1,.287-.154c.132,0,.242.154.264.463a2.52,2.52,0,0,1-2.49,2.468C1.134,31.2.01,29.767.01,27.939A5.638,5.638,0,0,1,1.222,24.59,6.625,6.625,0,0,1,6.312,22.1a4.633,4.633,0,0,1,1.85.374c1.3.616,1.653,1.917,1.653,3.283a14.393,14.393,0,0,1-.242,2.248c-.022.132-.045.287-.087.463.264-.484.529-.992.771-1.411.9-1.476,2.226-2.842,3.525-2.556,1.3.309,1.565,1.565,1.521,2.932-.022.419-.087,1.08-.177,1.807.22-.4.441-.771.638-1.057.683-1.035,1.895-3.041,3.7-2.645,1.74.374,1.763,2.423,1.718,3.2a37.469,37.469,0,0,1-1.476,6.677,11.427,11.427,0,0,0-.441,2.446c0,.441.087.75.352.838.661.2,1.256-.374,1.785-.947" transform="translate(-0.01 -21.133)" fill="#fff"/>
        <path id="パス_1088854" data-name="パス 1088854" d="M114.408,28.516c-.242.11-.506.264-1.411.705-.045.2-.087.419-.154.638-2.226,8.659-5,10.84-6.853,10.84a2.06,2.06,0,0,1-.638-.087,2.342,2.342,0,0,1-1.411-2.49,6.408,6.408,0,0,1,1.08-3.438,13.957,13.957,0,0,1,5.619-4.959c-.067-.045-.154-.087-.22-.132a7.1,7.1,0,0,1-2.82-5.971,11.24,11.24,0,0,1,.067-1.189c.419-3.46,2.556-5.751,4.143-5.51,1.521.22,2.468,1.344,2.468,4.253A33.151,33.151,0,0,1,113.2,28.4c.882-.441,1.035-.551,1.256-.638.374-.154.661.441-.045.748Zm-9.563,9.5c-.154,1.3.242,2.269,1.3,2.114,1.035-.154,1.83-1.521,2.446-3.084.4-.97,1.189-3.745,1.917-6.522-2.842,1.631-5.288,4.054-5.662,7.492Zm3.747-14.784c-.022.242-.022.484-.022.728a6.417,6.417,0,0,0,2.314,5.068c.309-1.189.573-2.314.771-3.239a34.991,34.991,0,0,0,1.1-6.325c0-1.08-.264-1.807-.992-1.83-1.895-.067-2.974,3.019-3.174,5.6Z" transform="translate(-84.595 -16.906)" fill="#fff"/>
      </g>
    </g>
  </g>
</svg>
