<svg id="_954_sm_h" data-name="954_sm_h" xmlns="http://www.w3.org/2000/svg" width="15" height="25" viewBox="0 0 15 25">
  <path id="長方形_313019" data-name="長方形 313019" d="M1.308-1H11.692A2.348,2.348,0,0,1,14,1.381V21.619A2.348,2.348,0,0,1,11.692,24H1.308A2.348,2.348,0,0,1-1,21.619V1.381A2.348,2.348,0,0,1,1.308-1ZM11.692,22.81a1.174,1.174,0,0,0,1.154-1.19V1.381A1.174,1.174,0,0,0,11.692.19H1.308A1.174,1.174,0,0,0,.154,1.381V21.619a1.174,1.174,0,0,0,1.154,1.19Z" transform="translate(1 1)" fill="#ff4a4a"/>
  <path id="線_53003" data-name="線 53003" d="M13.423.222H-.423A.6.6,0,0,1-1-.389.6.6,0,0,1-.423-1H13.423A.6.6,0,0,1,14-.389.6.6,0,0,1,13.423.222Z" transform="translate(1 20.022)" fill="#ff4a4a"/>
  <path id="線_53004" data-name="線 53004" d="M.834.222H-.389A.611.611,0,0,1-1-.389.611.611,0,0,1-.389-1H.834a.611.611,0,0,1,.611.611A.611.611,0,0,1,.834.222Z" transform="translate(7.278 22.333)" fill="#ff4a4a"/>
  <path id="線_53005" data-name="線 53005" d="M2.056.222H-.389A.611.611,0,0,1-1-.389.611.611,0,0,1-.389-1H2.056a.611.611,0,0,1,.611.611A.611.611,0,0,1,2.056.222Z" transform="translate(6.666 3.445)" fill="#ff4a4a"/>
</svg>
