<svg xmlns="http://www.w3.org/2000/svg" width="28" height="28.832" viewBox="0 0 28 28.832">
  <g id="グループ_559276" data-name="グループ 559276" transform="translate(0 0.105)">
    <path id="Call-Icon" d="M16.8,25.2s8.138,7.668,12.725,5.251a4.284,4.284,0,0,0,1.39-2.125c.123-1.053-.93-1.759-1.337-2C28.6,25.748,27.6,25.21,26.6,24.662a1.417,1.417,0,0,0-1.026-.273,3.443,3.443,0,0,0-.632.214c-.7.34-1.274.66-2.032.978,0,0-.774-.234-3.661-2.948C16.184,19.75,16.6,18.678,16.6,18.678a11.686,11.686,0,0,0,1.064-1.655,4.171,4.171,0,0,0,.384-.763c.077-.273-.081-.469-.213-.709-.294-.537-.608-1.063-.935-1.584a19.09,19.09,0,0,0-1.853-2.641c-.076-.084-.252-.335-.4-.325a6.187,6.187,0,0,0-3.166,1.58C9.015,16.77,16.8,25.2,16.8,25.2Z" transform="translate(-11 -2.193)" fill="#1839b1" fill-rule="evenodd"/>
    <path id="Audio-Icon" d="M1.535,13.922a7.066,7.066,0,0,0,1.3-4.287A7.67,7.67,0,0,0,1.282,5.22a.735.735,0,0,0-1-.179.685.685,0,0,0-.134.979A6.216,6.216,0,0,1,1.4,9.6a5.727,5.727,0,0,1-1.05,3.478.711.711,0,0,0,.191.985A.708.708,0,0,0,1.535,13.922Zm3.2,2.325A10.872,10.872,0,0,0,6.667,9.726a11.785,11.785,0,0,0-2.29-6.676.736.736,0,0,0-1-.191.684.684,0,0,0-.146.977A10.333,10.333,0,0,1,5.238,9.692a9.533,9.533,0,0,1-1.7,5.72.728.728,0,0,0,1.19.835ZM7.877,18.3a14.543,14.543,0,0,0,2.778-8.984A15.785,15.785,0,0,0,7.529.308a.735.735,0,0,0-1-.186.685.685,0,0,0-.141.978A14.333,14.333,0,0,1,9.226,9.285,13.205,13.205,0,0,1,6.7,17.444a.728.728,0,0,0,1.173.858Z" transform="translate(7.767 6.889) rotate(-41)" fill="#1839b1" fill-rule="evenodd"/>
  </g>
</svg>
