<svg id="_954_sm_h" data-name="954_sm_h" xmlns="http://www.w3.org/2000/svg" width="15.89" height="25.669" viewBox="0 0 15.89 25.669">
  <path id="長方形_313019" data-name="長方形 313019" d="M1.445-1h11A2.447,2.447,0,0,1,14.89,1.445v20.78a2.447,2.447,0,0,1-2.445,2.445h-11A2.447,2.447,0,0,1-1,22.224V1.445A2.447,2.447,0,0,1,1.445-1Zm11,24.447a1.224,1.224,0,0,0,1.222-1.222V1.445A1.224,1.224,0,0,0,12.446.222h-11A1.224,1.224,0,0,0,.222,1.445v20.78a1.224,1.224,0,0,0,1.222,1.222Z" transform="translate(1 1)" fill="#fff"/>
  <path id="線_53003" data-name="線 53003" d="M14.279.222H-.389A.611.611,0,0,1-1-.389.611.611,0,0,1-.389-1H14.279a.611.611,0,0,1,.611.611A.611.611,0,0,1,14.279.222Z" transform="translate(1 20.557)" fill="#fff"/>
  <path id="線_53004" data-name="線 53004" d="M.834.222H-.389A.611.611,0,0,1-1-.389.611.611,0,0,1-.389-1H.834a.611.611,0,0,1,.611.611A.611.611,0,0,1,.834.222Z" transform="translate(7.723 23.002)" fill="#fff"/>
  <path id="線_53005" data-name="線 53005" d="M2.056.222H-.389A.611.611,0,0,1-1-.389.611.611,0,0,1-.389-1H2.056a.611.611,0,0,1,.611.611A.611.611,0,0,1,2.056.222Z" transform="translate(7.112 3.445)" fill="#fff"/>
</svg>
