<svg xmlns="http://www.w3.org/2000/svg" width="18.438" height="17.301" viewBox="0 0 18.438 17.301">
  <g id="グループ_570982" data-name="グループ 570982" transform="translate(0.494 0.256)">
    <g id="グループ_570981" data-name="グループ 570981" transform="translate(-0.206 -0.106)">
      <path id="パス_1089142" data-name="パス 1089142" d="M10.361.5A8.253,8.253,0,0,0,2.215,8.74H.973l1.515,2.166L4,8.74H2.764a7.7,7.7,0,0,1,7.6-7.678,7.7,7.7,0,0,1,7.6,7.78,7.7,7.7,0,0,1-7.6,7.78,7.573,7.573,0,0,1-6.147-3.205l-.444.331a8.12,8.12,0,0,0,6.591,3.437,8.256,8.256,0,0,0,8.148-8.342A8.256,8.256,0,0,0,10.361.5" transform="translate(-0.666 -0.342)" fill="#474645" stroke="#3c3c3c" stroke-width="0.3"/>
      <path id="パス_1089143" data-name="パス 1089143" d="M9.693,0A8.415,8.415,0,0,1,18,8.5,8.415,8.415,0,0,1,9.693,17a8.28,8.28,0,0,1-6.719-3.5l-.09-.127.692-.516.09.127a7.427,7.427,0,0,0,6.027,3.141A7.547,7.547,0,0,0,17.144,8.5,7.547,7.547,0,0,0,9.693.876a7.241,7.241,0,0,0-2.876.591A7.431,7.431,0,0,0,4.46,3.079,7.685,7.685,0,0,0,2.248,8.241H3.629L1.815,10.833,0,8.241H1.391A8.57,8.57,0,0,1,3.856,2.458,8.284,8.284,0,0,1,6.485.66,8.074,8.074,0,0,1,9.693,0Zm0,16.686a8.1,8.1,0,0,0,8-8.186,8.1,8.1,0,0,0-8-8.186A7.775,7.775,0,0,0,6.6.949,7.979,7.979,0,0,0,4.072,2.681a8.189,8.189,0,0,0-1.721,2.57A8.273,8.273,0,0,0,1.694,8.4l0,.155H.6l1.218,1.74,1.217-1.74h-1.1l0-.159a8.023,8.023,0,0,1,.638-3.05,7.939,7.939,0,0,1,1.669-2.49A7.735,7.735,0,0,1,6.7,1.178,7.54,7.54,0,0,1,9.693.562,7.858,7.858,0,0,1,17.45,8.5a7.858,7.858,0,0,1-7.757,7.938A7.729,7.729,0,0,1,3.51,13.294l-.2.146A7.971,7.971,0,0,0,9.693,16.686Z" transform="translate(0 0)" fill="#474645" stroke="#3c3c3c" stroke-width="0.3"/>
      <path id="パス_1089144" data-name="パス 1089144" d="M117.128,38.409v5.433l3.31,3.31.4-.4-3.145-3.145v-5.2Z" transform="translate(-107.773 -35.218)" fill="#474645" stroke="#3c3c3c" stroke-width="0.3"/>
      <path id="パス_1089145" data-name="パス 1089145" d="M116.628,37.909h.879V43.2l3.21,3.21-.622.622-3.468-3.468Zm.564.315h-.249v5.21l3.153,3.153.176-.176-3.08-3.08Z" transform="translate(-107.433 -34.876)" fill="#474645" stroke="#3c3c3c" stroke-width="0.3"/>
    </g>
  </g>
</svg>
