<svg xmlns="http://www.w3.org/2000/svg" width="17.931" height="18" viewBox="0 0 17.931 18">
  <g id="グループ_571005" data-name="グループ 571005" transform="translate(-1168 -359.704)">
    <g id="グループ_559799" data-name="グループ 559799" transform="translate(1168 359.704)">
      <rect id="長方形_301398" data-name="長方形 301398" width="17.704" height="17.704" transform="translate(0 0.296)" fill="none"/>
      <g id="clock" transform="translate(0.154 0)">
        <path id="パス_80" data-name="パス 80" d="M10.889,2a8.889,8.889,0,1,0,8.889,8.889A8.889,8.889,0,0,0,10.889,2Zm0,16.666a7.778,7.778,0,1,1,7.778-7.778,7.778,7.778,0,0,1-7.778,7.778Z" transform="translate(-2 -2)" fill="#333"/>
        <path id="パス_81" data-name="パス 81" d="M18.05,14.635V10.315a.565.565,0,1,0-1.13,0V15.24L20.252,17.5a.565.565,0,1,0,.627-.938Z" transform="translate(-8.674 -5.5)" fill="#333"/>
        <path id="パス_82" data-name="パス 82" d="M7.3,12.742a5.468,5.468,0,0,1,2.939-4.851A5.726,5.726,0,0,1,16,8.134l.48-.751a6.65,6.65,0,0,0-7.24.059A6.309,6.309,0,0,0,6.514,14a6.452,6.452,0,0,0,5.147,4.976l.152-.844A5.552,5.552,0,0,1,7.3,12.742Z" transform="translate(-3.907 -3.89)" fill="#333"/>
      </g>
    </g>
  </g>
</svg>
