<svg xmlns="http://www.w3.org/2000/svg" width="15" height="15.165" viewBox="0 0 15 15.165">
  <g id="グループ_559801" data-name="グループ 559801" transform="translate(0 0.262)">
    <path id="yen" d="M17.4,3.774a.513.513,0,0,0-.136-.691.465.465,0,0,0-.661.142L11.986,10.6,7.371,3.225a.465.465,0,0,0-.661-.142.513.513,0,0,0-.136.691l4.935,7.887v.923H9.122a.4.4,0,0,0,0,.8h2.386v1.2H9.122a.4.4,0,0,0,0,.8h2.386v2.1a.478.478,0,1,0,.955,0v-2.1H14.85a.4.4,0,0,0,0-.8H12.463v-1.2H14.85a.4.4,0,0,0,0-.8H12.463v-.923Z" transform="translate(-4.498 -3.072)" fill="#333"/>
    <rect id="長方形_301399" data-name="長方形 301399" width="15" height="15" transform="translate(0 -0.262)" fill="none"/>
  </g>
</svg>
