<svg id="mail" xmlns="http://www.w3.org/2000/svg" width="13.957" height="11.299" viewBox="0 0 13.957 11.299">
  <path id="パス_1089145" data-name="パス 1089145" d="M3.162,3.5H13.8a1.663,1.663,0,0,1,1.662,1.662v7.976A1.663,1.663,0,0,1,13.8,14.8H3.162A1.663,1.663,0,0,1,1.5,13.137V5.162A1.663,1.663,0,0,1,3.162,3.5ZM13.8,14.134a1,1,0,0,0,1-1V5.162a1,1,0,0,0-1-1H3.162a1,1,0,0,0-1,1v7.976a1,1,0,0,0,1,1Z" transform="translate(-1.5 -3.5)"/>
  <path id="パス_1089146" data-name="パス 1089146" d="M8.479,10.817a.332.332,0,0,1-.191-.06L1.642,6.1a.332.332,0,1,1,.381-.544l6.456,4.519L14.934,5.56a.332.332,0,0,1,.381.544L8.669,10.757A.332.332,0,0,1,8.479,10.817Z" transform="translate(-1.5 -4.171)"/>
</svg>
