<svg class="message-icon" xmlns="http://www.w3.org/2000/svg" width="21.286" height="20.104" viewBox="0 0 21.286 20.104">
  <path id="パス_1083260" data-name="パス 1083260" d="M10.69,19.179C4.322,19.179,0,22.494,0,27.65A8.344,8.344,0,0,0,3.788,35c.166.109.363.126.289.44-.3,1.271-.815,3.535-.815,3.535a.254.254,0,0,0,.09.256.242.242,0,0,0,.265.022s3.653-2.21,4.14-2.486a5.479,5.479,0,0,1,2.85-.792c5.05,0,10.679-2.063,10.679-8.38C21.286,22.7,17.419,19.179,10.69,19.179Zm-5,10.142a1.3,1.3,0,1,1,1.27-1.3A1.283,1.283,0,0,1,5.692,29.321Zm4.951,0a1.3,1.3,0,1,1,1.27-1.3A1.283,1.283,0,0,1,10.643,29.321Zm4.951,0a1.3,1.3,0,1,1,1.27-1.3A1.283,1.283,0,0,1,15.594,29.321Z" transform="translate(0 -19.179)" fill="#1f1c0d"/>
</svg>